<svg width="89" height="89" viewBox="0 0 89 89" fill="none" xmlns="http://www.w3.org/2000/svg">
<path d="M44.3145 59.0863C50.4331 59.0863 55.3932 54.1262 55.3932 48.0076C55.3932 41.8891 50.4331 36.929 44.3145 36.929C38.1959 36.929 33.2358 41.8891 33.2358 48.0076C33.2358 54.1262 38.1959 59.0863 44.3145 59.0863Z" stroke="#A9A9A9" stroke-width="6.25"/>
<path d="M7.38574 49.3519C7.38574 38.0331 7.38574 32.3756 10.1517 28.3134C11.354 26.5482 12.8925 25.0373 14.6792 23.8672C17.3381 22.1204 20.6691 21.4963 25.769 21.2748C28.2026 21.2748 30.2965 19.4652 30.7729 17.1202C31.1369 15.4026 32.0828 13.8632 33.4508 12.7624C34.8187 11.6616 36.5247 11.0669 38.2805 11.0787H50.3489C53.9975 11.0787 57.1401 13.6083 57.8566 17.1202C58.3329 19.4652 60.4268 21.2748 62.8604 21.2748C67.9566 21.4963 71.2876 22.1241 73.9502 23.8672C75.7413 25.0415 77.2812 26.5519 78.4777 28.3134C81.2437 32.3756 81.2437 38.0331 81.2437 49.3519C81.2437 60.6706 81.2437 66.3244 78.4777 70.3903C77.2754 72.1555 75.7369 73.6664 73.9502 74.8365C69.8105 77.5508 64.0459 77.5508 52.5203 77.5508H36.1091C24.5836 77.5508 18.819 77.5508 14.6792 74.8365C12.8935 73.6649 11.3562 72.1528 10.1554 70.3866C9.3531 69.1915 8.76224 67.8674 8.40867 66.4721M70.165 36.9289H66.4721" stroke="#A9A9A9" stroke-width="6.25" stroke-linecap="round"/>
</svg>
