<svg width="100" height="100" viewBox="0 0 100 100" fill="none" xmlns="http://www.w3.org/2000/svg">
<path d="M24.9998 83.3333C22.7082 83.3333 20.7471 82.5181 19.1165 80.8875C17.4859 79.2569 16.6693 77.2944 16.6665 75V66.6667C16.6665 65.4861 17.0665 64.4972 17.8665 63.7C18.6665 62.9028 19.6554 62.5028 20.8332 62.5C22.0109 62.4972 23.0012 62.8972 23.804 63.7C24.6068 64.5028 25.0054 65.4917 24.9998 66.6667V75H74.9998V66.6667C74.9998 65.4861 75.3998 64.4972 76.1998 63.7C76.9998 62.9028 77.9887 62.5028 79.1665 62.5C80.3443 62.4972 81.3346 62.8972 82.1373 63.7C82.9401 64.5028 83.3387 65.4917 83.3332 66.6667V75C83.3332 77.2917 82.5179 79.2542 80.8873 80.8875C79.2568 82.5208 77.2943 83.3361 74.9998 83.3333H24.9998ZM45.8332 32.7083L38.0207 40.5208C37.1873 41.3542 36.1984 41.7542 35.054 41.7208C33.9096 41.6875 32.9193 41.2528 32.0832 40.4167C31.3193 39.5833 30.9193 38.6111 30.8832 37.5C30.8471 36.3889 31.2471 35.4167 32.0832 34.5833L47.0832 19.5833C47.4998 19.1667 47.9512 18.8722 48.4373 18.7C48.9234 18.5278 49.4443 18.4403 49.9998 18.4375C50.5554 18.4347 51.0762 18.5222 51.5623 18.7C52.0484 18.8778 52.4998 19.1722 52.9165 19.5833L67.9165 34.5833C68.7498 35.4167 69.1498 36.3889 69.1165 37.5C69.0832 38.6111 68.6832 39.5833 67.9165 40.4167C67.0832 41.25 66.0943 41.6847 64.9498 41.7208C63.8054 41.7569 62.8151 41.3569 61.979 40.5208L54.1665 32.7083V62.5C54.1665 63.6806 53.7665 64.6708 52.9665 65.4708C52.1665 66.2708 51.1776 66.6694 49.9998 66.6667C48.8221 66.6639 47.8332 66.2639 47.0332 65.4667C46.2332 64.6694 45.8332 63.6806 45.8332 62.5V32.7083Z" fill="#A9A9A9"/>
</svg>
